<?xml version="1.0" standalone="no"?><!-- Generator: Gravit.io --><svg xmlns="http://www.w3.org/2000/svg" xmlns:xlink="http://www.w3.org/1999/xlink" style="isolation:isolate" viewBox="158.074 166.417 138.352 142.667" width="138.352px" height="142.667px"><path d=" M 181.052 307.583 C 175.373 303.798 172.128 296.926 170.719 290.583 C 168.417 283.677 165.385 276.908 165.385 270.583 C 165.385 264.284 162.418 255.681 160.719 250.583 C 158.617 244.278 160.052 236.208 160.052 230.583 C 160.052 223.102 165.719 216.415 165.719 210.583 C 165.719 203.793 173.012 195.143 176.052 190.583 C 180.386 184.082 187.507 178.098 194.052 175.917 C 201.118 173.561 207.958 172.281 214.052 170.25 C 220.99 167.938 227.78 167.917 234.052 167.917 C 241.497 167.917 247.941 167.917 254.385 167.917 C 260.983 167.917 270.963 173.649 272.719 178.917 C 275.342 186.788 282.068 191.964 284.385 198.917 C 286.632 205.657 290.719 212.895 290.719 218.917 C 290.719 226.152 294.385 232.301 294.385 238.917 C 294.385 246.309 294.719 252.552 294.719 258.917 C 294.719 265.906 295.604 273.262 293.719 278.917 C 291.328 286.088 288.076 294.456 282.385 298.25 C 274.681 303.387 270.832 304.323 263.052 306.917 C 253.863 309.98 256.4 293.54 257.385 290.583 C 259.851 283.187 266.078 277.839 268.385 270.917 C 270.798 263.678 267.052 257.054 267.052 250.917 C 267.052 243.732 262.703 236.535 260.719 230.583 C 258.237 223.139 254.909 217.155 252.719 210.583 C 252.385 209.583 249.719 190.583 249.719 190.583 C 246.926 191.514 244.949 196.84 241.719 197.917 C 238.431 199.013 234.97 199.833 231.719 200.917 C 224.622 203.282 218.158 203.25 211.719 203.25 C 203.998 203.25 198.301 200.917 191.719 200.917 C 181.929 200.917 179.21 203.109 176.385 211.583 C 174.035 218.633 174.052 225.197 174.052 231.583 C 174.052 238.917 174.052 245.25 174.052 251.583 C 174.052 258.839 176.385 265.197 176.385 271.583 C 176.385 278.876 177.052 285.291 177.052 291.583 C 177.052 298.215 179.013 302.465 181.052 307.583 Z " id="Path" fill="rgb(0,0,0)" vector-effect="non-scaling-stroke" stroke-width="1" stroke="rgb(0,0,0)" stroke-linejoin="miter" stroke-linecap="square" stroke-miterlimit="3"/></svg>