<?xml version="1.0" standalone="no"?><!-- Generator: Gravit.io --><svg xmlns="http://www.w3.org/2000/svg" xmlns:xlink="http://www.w3.org/1999/xlink" style="isolation:isolate" viewBox="139.16 208.492 122.013 64.349" width="122.013px" height="64.349px"><path d=" M 140.66 263.774 C 140.66 257.704 140.666 251.718 141.327 245.774 C 143.734 238.551 145.59 231.983 147.66 225.774 C 152.434 211.452 155.87 224.793 159.66 219.108 C 166.747 208.478 167.246 210.721 176.327 216.774 C 181.285 220.08 188.505 204.952 195.66 212.108 C 202.253 218.701 209.913 212.023 215.66 210.108 C 220.614 208.456 222.221 225.143 231.327 222.108 C 235.549 220.7 251.954 217.833 249.327 221.774 C 244.024 229.729 240.384 235.774 250.66 235.774 C 263.544 235.774 260.697 239.071 253.993 245.774 C 247.908 251.86 249.993 258.721 249.993 265.441 C 249.993 280.477 244.264 262.288 240.993 260.108 C 233.664 255.221 228.361 247.966 222.327 243.441 C 213.839 237.075 210.296 238.441 201.993 238.441 C 194.603 238.441 188.19 241.441 181.993 241.441 C 174.368 241.441 167.985 247.888 162.327 249.774 C 153.711 252.646 149.156 258.999 142.993 263.108 L 141.993 263.774 L 140.66 263.774 Z " id="Path" fill="rgb(0,0,0)" vector-effect="non-scaling-stroke" stroke-width="1" stroke="rgb(0,0,0)" stroke-linejoin="miter" stroke-linecap="square" stroke-miterlimit="3"/></svg>