<?xml version="1.0" standalone="no"?><!-- Generator: Gravit.io --><svg xmlns="http://www.w3.org/2000/svg" xmlns:xlink="http://www.w3.org/1999/xlink" style="isolation:isolate" viewBox="153.527 380.741 147.446 131.517" width="147.446px" height="131.517px"><path d=" M 181.027 509.741 C 174.098 513.206 168.478 507.055 165.027 502.741 C 161.483 499.197 159.027 486.696 159.027 482.741 C 159.027 475.245 155.527 468.777 155.527 462.741 C 155.527 455.618 155.027 449.055 155.027 442.741 C 155.027 434.098 155.243 429.81 158.527 423.241 C 161.606 417.084 163.061 406.974 168.527 404.241 C 175.159 400.925 180.78 394.865 187.027 391.741 C 191.498 389.506 203.183 386.741 207.027 386.741 C 214.349 386.741 220.256 382.241 227.027 382.241 C 234.426 382.241 241.098 383.741 247.027 383.741 C 253.171 383.741 262.329 387.893 267.027 390.241 C 275.773 394.615 277.454 401.095 281.027 408.241 C 284.055 414.296 286.584 423.298 291.027 427.741 C 295.563 432.277 296.527 442.86 296.527 447.741 C 296.527 455.122 299.027 461.335 299.027 467.741 C 299.027 474.346 300.526 482.743 298.027 487.741 C 295.839 492.118 292.631 506.741 287.527 506.741 C 280.569 506.741 272.846 510.06 267.527 504.741 C 260.738 497.952 264.027 493.8 264.027 486.241 C 264.027 478.988 268.527 472.82 268.527 466.241 C 268.527 461.64 271.485 448.47 267.027 446.241 C 262.404 443.93 259.221 430.435 256.027 427.241 C 249.994 421.208 243.445 422.241 236.527 422.241 C 229.194 422.241 222.86 422.241 216.527 422.241 C 209.194 422.241 202.86 422.241 196.527 422.241 C 188.986 422.241 181.6 420.596 178.527 426.741 C 175.12 433.555 174.027 439.336 174.027 446.241 C 174.027 453.281 176.027 459.687 176.027 466.241 C 176.027 473.555 176.527 479.812 176.527 486.241 C 176.527 492.785 177.629 501.445 180.027 506.241 C 180.527 507.241 180.527 509.241 181.027 509.741 Z " id="Path" fill="rgb(0,0,0)" vector-effect="non-scaling-stroke" stroke-width="1" stroke="rgb(0,0,0)" stroke-linejoin="miter" stroke-linecap="square" stroke-miterlimit="3"/></svg>