<svg xmlns="http://www.w3.org/2000/svg" width="748" height="801" viewBox="0 0 748 801">
  <g id="Hair1" transform="translate(-699 -31)">
    <rect id="Rectangle_14" data-name="Rectangle 14" width="748" height="801" transform="translate(699 31)" fill="none" opacity="0"/>
    <path id="Haar1" d="M806.708,454.61,778.84,440.252V394.431l22.734-40.017,17.774-33.281,29.139-69.566,22.205,23.844,22.165-85.571,41.328,39.5,39.224-80.426,5.132,63.947,23.252-97.758,19.834,53.29,21.62-53.29,15.3,82.161,53.071-82.161,26.038,74.736,52.1-54.821,30.01,94.323,58.346-39.5,7.683,95.4,34.71-17.11,15.031,99.105,16.08,45.749-42.626-5.246-30.877-40.5-42.14-20.137-6.048-37.8h-40.168l-40.95-33.893L1111.617,294.3l-68.37-9.055-21.62,9.055-53.9-9.055-33.539,35.89L892.856,347.1l-22.165,7.313L855.13,385.582l-31.865,21.972Z"/>
  </g>
</svg>
