<?xml version="1.0" encoding="UTF-8" standalone="no"?>
<svg
   xmlns:dc="http://purl.org/dc/elements/1.1/"
   xmlns:cc="http://creativecommons.org/ns#"
   xmlns:rdf="http://www.w3.org/1999/02/22-rdf-syntax-ns#"
   xmlns:svg="http://www.w3.org/2000/svg"
   xmlns="http://www.w3.org/2000/svg"
   xmlns:sodipodi="http://sodipodi.sourceforge.net/DTD/sodipodi-0.dtd"
   xmlns:inkscape="http://www.inkscape.org/namespaces/inkscape"
   width="1072"
   height="800.70496"
   viewBox="0 0 1072 800.70496"
   version="1.1"
   id="svg19"
   sodipodi:docname="Hair4.svg"
   inkscape:version="0.92.4 (5da689c313, 2019-01-14)">
  <metadata
     id="metadata23">
    <rdf:RDF>
      <cc:Work
         rdf:about="">
        <dc:format>image/svg+xml</dc:format>
        <dc:type
           rdf:resource="http://purl.org/dc/dcmitype/StillImage" />
      </cc:Work>
    </rdf:RDF>
  </metadata>
  <sodipodi:namedview
     pagecolor="#ffffff"
     bordercolor="#666666"
     borderopacity="1"
     objecttolerance="10"
     gridtolerance="10"
     guidetolerance="10"
     inkscape:pageopacity="0"
     inkscape:pageshadow="2"
     inkscape:window-width="3840"
     inkscape:window-height="2004"
     id="namedview21"
     showgrid="false"
     inkscape:zoom="1.6722763"
     inkscape:cx="475.44814"
     inkscape:cy="375.49017"
     inkscape:window-x="-16"
     inkscape:window-y="-16"
     inkscape:window-maximized="1"
     inkscape:current-layer="svg19" />
  <defs
     id="defs5">
    <clipPath
       id="clip-path">
      <rect
         width="1072"
         height="1129"
         id="rect2"
         x="0"
         y="0"
         style="fill:none" />
    </clipPath>
  </defs>
  <g
     transform="translate(20,720)"
     id="Haar4">
    <path
       inkscape:connector-curvature="0"
       d="m 516,-455.764 -48.144,-11.362 -51.349,30.815 -52.2,40.405 -35.187,53.51 -35.878,91.842 -58.252,59.021 -34.145,34.408 v -74.531 l 13.436,-78.659 20.709,-73.421 35.39,-61.36 44.526,-45.077 49.4,-30.9 76.274,-26.015 53,-10.165 H 516 Z"
       data-name="Path 11"
       id="Path_11" />
    <path
       inkscape:connector-curvature="0"
       transform="translate(315.151)"
       d="m 200.849,-455.764 48.144,-11.362 51.349,30.815 52.2,40.405 35.187,53.51 35.871,91.843 58.252,59.021 34.148,34.408 v -74.531 l -13.436,-78.659 -20.709,-73.421 -35.389,-61.36 -44.525,-45.077 -49.4,-30.9 -76.277,-26.018 -53,-10.165 h -22.415 z"
       data-name="Path 12"
       id="Path_12" />
    <path
       inkscape:connector-curvature="0"
       d="M 223,-208.5 V 42.713 L 253.981,2.8 275.622,66.471 316.08,16.218 h 30.595 L 333.5,6.09 316.079,-9.891 298.064,-27.1 l -16.1,-19.941 -11.645,-16.922 -14.466,-26.1 -8.417,-17.312 -6.046,-14.525 -5.435,-15.225 -3.831,-14.016 -2.849,-13.286 -2.485,-13.373 -1.211,-11.985 z"
       data-name="Path 13"
       id="Path_13" />
    <path
       inkscape:connector-curvature="0"
       transform="translate(462.674)"
       d="M 346.67,-208.5 V 42.713 L 315.69,2.8 294.05,66.468 253.594,16.215 H 223 L 236.175,6.09 253.594,-9.891 271.608,-27.1 287.7,-47.04 l 11.648,-16.923 14.465,-26.1 8.417,-17.312 6.045,-14.529 5.435,-15.225 3.83,-14.016 2.849,-13.286 2.485,-13.372 1.21,-11.985 z"
       data-name="Path 14"
       id="Path_14" />
  </g>
  <g
     style="opacity:0"
     clip-path="url(#clip-path)"
     id="Holder"
     transform="scale(1,0.7092161)">
    <g
       style="opacity:0.203;fill:#1ae209;stroke:#707070;stroke-width:1"
       data-name="Holder"
       id="Holder-2">
      <rect
         style="stroke:none"
         y="0"
         x="0"
         id="rect12"
         height="1129"
         width="1072" />
      <rect
         style="fill:none"
         id="rect14"
         height="1128"
         width="1071"
         y="0.5"
         x="0.5" />
    </g>
  </g>
</svg>
