<?xml version="1.0" encoding="UTF-8" standalone="no"?>
<svg
   xmlns:dc="http://purl.org/dc/elements/1.1/"
   xmlns:cc="http://creativecommons.org/ns#"
   xmlns:rdf="http://www.w3.org/1999/02/22-rdf-syntax-ns#"
   xmlns:svg="http://www.w3.org/2000/svg"
   xmlns="http://www.w3.org/2000/svg"
   xmlns:sodipodi="http://sodipodi.sourceforge.net/DTD/sodipodi-0.dtd"
   xmlns:inkscape="http://www.inkscape.org/namespaces/inkscape"
   width="1072"
   height="808.47882"
   viewBox="0 0 1072 808.47882"
   version="1.1"
   id="svg15"
   sodipodi:docname="Hair3.svg"
   inkscape:version="0.92.4 (5da689c313, 2019-01-14)">
  <metadata
     id="metadata19">
    <rdf:RDF>
      <cc:Work
         rdf:about="">
        <dc:format>image/svg+xml</dc:format>
        <dc:type
           rdf:resource="http://purl.org/dc/dcmitype/StillImage" />
      </cc:Work>
    </rdf:RDF>
  </metadata>
  <sodipodi:namedview
     pagecolor="#ffffff"
     bordercolor="#666666"
     borderopacity="1"
     objecttolerance="10"
     gridtolerance="10"
     guidetolerance="10"
     inkscape:pageopacity="0"
     inkscape:pageshadow="2"
     inkscape:window-width="3840"
     inkscape:window-height="2004"
     id="namedview17"
     showgrid="false"
     inkscape:zoom="0.20903454"
     inkscape:cx="536"
     inkscape:cy="243.97881"
     inkscape:window-x="-16"
     inkscape:window-y="-16"
     inkscape:window-maximized="1"
     inkscape:current-layer="svg15" />
  <defs
     id="defs5">
    <clipPath
       id="clip-path">
      <rect
         width="1072"
         height="1129"
         id="rect2"
         x="0"
         y="0"
         style="fill:none" />
    </clipPath>
  </defs>
  <path
     inkscape:connector-curvature="0"
     d="m 259.548,425.928 c 4.421,-21.855 -3.1,-44.808 0,-61.52 13.6,-73.215 26.1,-92.057 26.1,-92.057 h 39.181 c 0,0 1.7,-59.706 39.484,-51.737 37.784,7.969 79.606,-52.412 95.066,-41.769 15.46,10.643 141.188,0 141.188,0 0,0 32.857,13.676 61.985,27.534 7.621,3.626 19.51,11.624 27.633,14.235 13.968,4.49 12,-0.927 24.042,0 a 202.548,202.548 0 0 1 38.165,7.034 l 36.679,69.817 8.767,45.973 v 34.7 l -8.767,23.144 -51.021,-49.982 -7.938,-32.048 -39.93,-10.557 -27.633,-24 h -39.917 l -36.283,-12.346 h -49.775 c 0,0 -19.206,5.566 -25.924,12.346 -6.718,6.78 -51.273,-12.346 -51.273,-12.346 L 430.1,284.7 l -27.937,24 -37.856,10.557 -8.287,32.043 -39.657,13.108 -23.708,36.877 z"
     id="Haar2" />
  <g
     style="opacity:0"
     clip-path="url(#clip-path)"
     id="Holder"
     transform="scale(1,0.71610169)">
    <g
       style="opacity:0.203;fill:#1ae209;stroke:#707070;stroke-width:1"
       data-name="Holder"
       id="Holder-2">
      <rect
         style="stroke:none"
         y="0"
         x="0"
         id="rect8"
         height="1129"
         width="1072" />
      <rect
         style="fill:none"
         id="rect10"
         height="1128"
         width="1071"
         y="0.5"
         x="0.5" />
    </g>
  </g>
</svg>
