<svg xmlns="http://www.w3.org/2000/svg" xmlns:xlink="http://www.w3.org/1999/xlink" width="1072" height="1129" viewBox="0 0 1072 1129">
  <defs>
    <clipPath id="clip-path">
      <rect width="1072" height="1129" fill="none"/>
    </clipPath>
  </defs>
  <g id="Hair3" transform="translate(-534 -5)">
    <path id="Haar2" d="M793.548,430.928c4.421-21.855-3.1-44.808,0-61.52,13.6-73.215,26.1-92.057,26.1-92.057h39.181s1.7-59.706,39.484-51.737,79.606-52.412,95.066-41.769,141.188,0,141.188,0,32.857,13.676,61.985,27.534c7.621,3.626,19.51,11.624,27.633,14.235,13.968,4.49,12-.927,24.042,0a202.548,202.548,0,0,1,38.165,7.034l36.679,69.817,8.767,45.973v34.7l-8.767,23.144L1272.05,356.3l-7.938-32.048-39.93-10.557-27.633-24h-39.917l-36.283-12.346h-49.775s-19.206,5.566-25.924,12.346-51.273-12.346-51.273-12.346L964.1,289.7l-27.937,24-37.856,10.557L890.02,356.3l-39.657,13.108-23.708,36.877Z"/>
    <g id="Holder" transform="translate(534 5)" opacity="0" clip-path="url(#clip-path)">
      <g id="Holder-2" data-name="Holder" fill="#1ae209" stroke="#707070" stroke-width="1" opacity="0.203">
        <rect width="1072" height="1129" stroke="none"/>
        <rect x="0.5" y="0.5" width="1071" height="1128" fill="none"/>
      </g>
    </g>
  </g>
</svg>
