<?xml version="1.0" encoding="UTF-8" standalone="no"?>
<svg
   xmlns:dc="http://purl.org/dc/elements/1.1/"
   xmlns:cc="http://creativecommons.org/ns#"
   xmlns:rdf="http://www.w3.org/1999/02/22-rdf-syntax-ns#"
   xmlns:svg="http://www.w3.org/2000/svg"
   xmlns="http://www.w3.org/2000/svg"
   xmlns:sodipodi="http://sodipodi.sourceforge.net/DTD/sodipodi-0.dtd"
   xmlns:inkscape="http://www.inkscape.org/namespaces/inkscape"
   width="1072"
   height="808.47882"
   viewBox="0 0 1072 808.47882"
   version="1.1"
   id="svg15"
   sodipodi:docname="Hair5.svg"
   inkscape:version="0.92.4 (5da689c313, 2019-01-14)">
  <metadata
     id="metadata19">
    <rdf:RDF>
      <cc:Work
         rdf:about="">
        <dc:format>image/svg+xml</dc:format>
        <dc:type
           rdf:resource="http://purl.org/dc/dcmitype/StillImage" />
      </cc:Work>
    </rdf:RDF>
  </metadata>
  <sodipodi:namedview
     pagecolor="#ffffff"
     bordercolor="#666666"
     borderopacity="1"
     objecttolerance="10"
     gridtolerance="10"
     guidetolerance="10"
     inkscape:pageopacity="0"
     inkscape:pageshadow="2"
     inkscape:window-width="3840"
     inkscape:window-height="2004"
     id="namedview17"
     showgrid="false"
     inkscape:zoom="0.20903454"
     inkscape:cx="536"
     inkscape:cy="243.97881"
     inkscape:window-x="-16"
     inkscape:window-y="-16"
     inkscape:window-maximized="1"
     inkscape:current-layer="svg15" />
  <defs
     id="defs5">
    <clipPath
       id="clip-path">
      <rect
         width="1072"
         height="1129"
         id="rect2"
         x="0"
         y="0"
         style="fill:none" />
    </clipPath>
  </defs>
  <path
     style="fill:none;stroke:#000000;stroke-width:5"
     inkscape:connector-curvature="0"
     d="m 521.521,262.7 c -2.112,-7.269 -15.8,-52.389 -13.947,-67.239 1.853,-14.85 26.584,-23.321 38.176,-58.179 1.75,-5.262 -7.053,-10.507 -12.833,-20.172 -5.253,-8.784 -7.479,-21.891 -6.475,-31.844 2.048,-20.313 24.713,-24.45 24.713,-24.45 a 23.614,23.614 0 0 1 21.708,7.49 c 3.512,3.887 5.851,26.314 5.851,26.314 0,0 1.915,5.747 4.39,7.663 2.475,1.916 8.719,-2.494 8.719,-2.494"
     id="Haar5" />
  <g
     style="opacity:0.00499998"
     clip-path="url(#clip-path)"
     id="Holder"
     transform="scale(1,0.71610169)">
    <g
       style="opacity:0.203;fill:#1ae209;stroke:#707070;stroke-width:1"
       data-name="Holder"
       id="Holder-2">
      <rect
         style="stroke:none"
         y="0"
         x="0"
         id="rect8"
         height="1129"
         width="1072" />
      <rect
         style="fill:none"
         id="rect10"
         height="1128"
         width="1071"
         y="0.5"
         x="0.5" />
    </g>
  </g>
</svg>
