<?xml version="1.0" encoding="UTF-8" standalone="no"?>
<svg
   xmlns:dc="http://purl.org/dc/elements/1.1/"
   xmlns:cc="http://creativecommons.org/ns#"
   xmlns:rdf="http://www.w3.org/1999/02/22-rdf-syntax-ns#"
   xmlns:svg="http://www.w3.org/2000/svg"
   xmlns="http://www.w3.org/2000/svg"
   xmlns:sodipodi="http://sodipodi.sourceforge.net/DTD/sodipodi-0.dtd"
   xmlns:inkscape="http://www.inkscape.org/namespaces/inkscape"
   width="1081.5677"
   height="808.47882"
   viewBox="0 0 1081.5677 808.47882"
   version="1.1"
   id="svg15"
   sodipodi:docname="Hair1.svg"
   inkscape:version="0.92.4 (5da689c313, 2019-01-14)">
  <metadata
     id="metadata19">
    <rdf:RDF>
      <cc:Work
         rdf:about="">
        <dc:format>image/svg+xml</dc:format>
        <dc:type
           rdf:resource="http://purl.org/dc/dcmitype/StillImage" />
      </cc:Work>
    </rdf:RDF>
  </metadata>
  <sodipodi:namedview
     pagecolor="#ffffff"
     bordercolor="#666666"
     borderopacity="1"
     objecttolerance="10"
     gridtolerance="10"
     guidetolerance="10"
     inkscape:pageopacity="0"
     inkscape:pageshadow="2"
     inkscape:window-width="3840"
     inkscape:window-height="2004"
     id="namedview17"
     showgrid="false"
     inkscape:zoom="0.20903454"
     inkscape:cx="540.7839"
     inkscape:cy="243.97881"
     inkscape:window-x="-16"
     inkscape:window-y="-16"
     inkscape:window-maximized="1"
     inkscape:current-layer="svg15" />
  <defs
     id="defs5">
    <clipPath
       id="clip-path">
      <rect
         width="1072"
         height="1129"
         id="rect2"
         x="0"
         y="0"
         style="fill:none" />
    </clipPath>
  </defs>
  <path
     inkscape:connector-curvature="0"
     d="m 278.46554,449.61 -27.74632,-14.358 0.38832,-45.821 23.07312,-40.017 18.05605,-33.281 29.72854,-69.566 22.00293,23.844 22.89018,-85.571 40.99325,39.5 39.90558,-80.426 4.59007,63.947 24.08046,-97.758 19.38239,53.29 22.07161,-53.29 14.60372,82.161 53.76728,-82.161 25.40465,74.736 52.56458,-54.821 29.21065,94.323 58.68075,-39.5 6.87452,95.4 34.855,-17.11 14.19113,99.105 15.6923,45.749 -42.58154,-5.246 -30.53378,-40.5 -41.96935,-20.137 -5.72766,-37.8 h -40.168 l -40.66277,-33.893 -37.3501,18.891 -68.29326,-9.055 -21.69674,9.055 -53.82326,-9.055 -33.84315,35.89 -41.55204,25.965 -22.22698,7.313 -15.82514,31.169 -32.05121,21.972 z"
     id="Haar1" />
  <g
     style="opacity:0"
     clip-path="url(#clip-path)"
     id="Holder"
     transform="matrix(1,0,-0.00847458,0.71610169,9.5678008,0)">
    <g
       style="opacity:0.203;fill:#1ae209;stroke:#707070;stroke-width:1"
       data-name="Holder"
       id="Holder-2">
      <rect
         style="stroke:none"
         y="0"
         x="0"
         id="rect8"
         height="1129"
         width="1072" />
      <rect
         style="fill:none"
         id="rect10"
         height="1128"
         width="1071"
         y="0.5"
         x="0.5" />
    </g>
  </g>
</svg>
