<?xml version="1.0" standalone="no"?><!-- Generator: Gravit.io --><svg xmlns="http://www.w3.org/2000/svg" xmlns:xlink="http://www.w3.org/1999/xlink" style="isolation:isolate" viewBox="143.14 209.439 114.053 62.456" width="114.053px" height="62.456px"><path d=" M 144.693 257.913 C 144.693 251.349 146.647 246.053 148.693 239.913 C 148.693 231.876 158.214 226.455 163.026 223.247 C 168.423 219.649 177.716 215.58 183.026 215.58 C 188.895 215.58 198.217 213.516 203.026 211.913 C 208.309 210.153 219.484 210.885 223.026 213.247 C 229.438 217.521 238.965 220.321 242.693 225.913 C 247.15 232.598 250.457 238.871 252.693 245.58 C 254.825 251.977 255.693 259.929 255.693 265.58 C 255.693 278.353 247.097 262.019 245.026 258.913 C 241.525 253.662 239.227 261.447 235.026 257.247 C 232.777 254.998 232.767 252.191 231.026 249.58 C 224.274 239.451 221.275 247.953 215.693 239.58 C 213.156 235.774 207.888 230.663 205.693 237.247 C 204.705 240.211 199.693 238.964 199.693 235.58 C 199.693 221.501 191.969 237.167 190.36 239.58 C 184.386 248.541 177.693 228.564 177.693 239.913 C 177.693 244.456 177.594 246.511 177.026 249.913 C 175.852 256.958 173.394 248.602 171.36 247.247 C 164.361 242.581 164.497 247.501 162.693 252.913 C 162.538 253.378 160.038 259.264 159.36 258.247 C 153.023 248.742 150.805 251.911 147.693 261.247 C 145.259 268.55 144.408 260.698 144.693 257.913 Z " id="Path" fill="rgb(0,0,0)" vector-effect="non-scaling-stroke" stroke-width="1" stroke="rgb(0,0,0)" stroke-linejoin="miter" stroke-linecap="square" stroke-miterlimit="3"/></svg>