<?xml version="1.0" encoding="UTF-8" standalone="no"?>
<svg
   xmlns:dc="http://purl.org/dc/elements/1.1/"
   xmlns:cc="http://creativecommons.org/ns#"
   xmlns:rdf="http://www.w3.org/1999/02/22-rdf-syntax-ns#"
   xmlns:svg="http://www.w3.org/2000/svg"
   xmlns="http://www.w3.org/2000/svg"
   xmlns:sodipodi="http://sodipodi.sourceforge.net/DTD/sodipodi-0.dtd"
   xmlns:inkscape="http://www.inkscape.org/namespaces/inkscape"
   width="917.69897"
   height="439"
   viewBox="0 0 917.69897 439"
   version="1.1"
   id="svg26"
   sodipodi:docname="Body2.svg"
   inkscape:version="0.92.4 (5da689c313, 2019-01-14)">
  <metadata
     id="metadata30">
    <rdf:RDF>
      <cc:Work
         rdf:about="">
        <dc:format>image/svg+xml</dc:format>
        <dc:type
           rdf:resource="http://purl.org/dc/dcmitype/StillImage" />
      </cc:Work>
    </rdf:RDF>
  </metadata>
  <sodipodi:namedview
     pagecolor="#ffffff"
     bordercolor="#666666"
     borderopacity="1"
     objecttolerance="10"
     gridtolerance="10"
     guidetolerance="10"
     inkscape:pageopacity="0"
     inkscape:pageshadow="2"
     inkscape:window-width="1052"
     inkscape:window-height="563"
     id="namedview28"
     showgrid="false"
     inkscape:zoom="0.20903454"
     inkscape:cx="459.687"
     inkscape:cy="522.5"
     inkscape:window-x="0"
     inkscape:window-y="0"
     inkscape:window-maximized="0"
     inkscape:current-layer="svg26" />
  <defs
     id="defs5">
    <clipPath
       id="clip-path">
      <rect
         width="1072"
         height="1129"
         id="rect2"
         x="0"
         y="0"
         style="fill:none" />
    </clipPath>
  </defs>
  <path
     style="fill:#ff0000"
     inkscape:connector-curvature="0"
     d="M 917.699,439 H 0 A 651.247,651.247 0 0 1 6.357,370.528 632.692,632.692 0 0 1 19.587,304.853 598.905,598.905 0 0 1 64.9,184.068 544.285,544.285 0 0 1 132.42,81 480.375,480.375 0 0 1 218.628,0 h 475.894 a 488.073,488.073 0 0 1 86.873,80.764 551.389,551.389 0 0 1 68.586,102.892 604.388,604.388 0 0 1 46.651,120.814 637.2,637.2 0 0 1 13.96,65.814 655.566,655.566 0 0 1 7.107,68.716 z"
     id="Kleidung2" />
  <circle
     r="6.5"
     cy="128.5"
     cx="481.18701"
     data-name="Ellipse 2"
     id="Ellipse_2" />
  <circle
     r="6.5"
     cy="161.5"
     cx="481.18701"
     data-name="Ellipse 2"
     id="Ellipse_2-2" />
  <circle
     r="6.5"
     cy="194.5"
     cx="481.18701"
     data-name="Ellipse 2"
     id="Ellipse_2-3" />
  <circle
     r="6.5"
     cy="227.5"
     cx="481.18701"
     data-name="Ellipse 2"
     id="Ellipse_2-4" />
  <circle
     r="6.5"
     cy="260.5"
     cx="481.18701"
     data-name="Ellipse 2"
     id="Ellipse_2-5" />
  <circle
     r="6.5"
     cy="293.5"
     cx="481.18701"
     data-name="Ellipse 2"
     id="Ellipse_2-6" />
  <circle
     r="6.5"
     cy="326.5"
     cx="481.18701"
     data-name="Ellipse 2"
     id="Ellipse_2-7" />
  <circle
     r="6.5"
     cy="359.5"
     cx="481.18701"
     data-name="Ellipse 2"
     id="Ellipse_2-8" />
  <circle
     r="6.5"
     cy="392.5"
     cx="481.18701"
     data-name="Ellipse 2"
     id="Ellipse_2-9" />
  <circle
     r="6.5"
     cy="425.5"
     cx="481.18701"
     data-name="Ellipse 2"
     id="Ellipse_2-10" />
  <path
     inkscape:connector-curvature="0"
     d="m 493.687,117 h 5 v 322 h -5 z"
     data-name="Path 1"
     id="Path_1" />
  <g
     style="opacity:0"
     clip-path="url(#clip-path)"
     id="Holder"
     transform="translate(-76.313,-648)">
    <g
       style="opacity:0.203;fill:#1ae209;stroke:#707070;stroke-width:1"
       data-name="Holder"
       id="Holder-2">
      <rect
         style="stroke:none"
         y="0"
         x="0"
         id="rect19"
         height="1129"
         width="1072" />
      <rect
         style="fill:none"
         id="rect21"
         height="1128"
         width="1071"
         y="0.5"
         x="0.5" />
    </g>
  </g>
</svg>
