<svg xmlns="http://www.w3.org/2000/svg" xmlns:xlink="http://www.w3.org/1999/xlink" width="917.699" height="439" viewBox="0 0 917.699 439">
  <defs>
    <clipPath id="clip-path">
      <rect width="13" height="317" fill="none"/>
    </clipPath>
  </defs>
  <g id="Kleidung2" transform="translate(-610.313 -654)">
    <path id="Kleidung2-2" data-name="Kleidung2" d="M964.012,591H46.313a651.247,651.247,0,0,1,6.357-68.472A632.692,632.692,0,0,1,65.9,456.853a598.905,598.905,0,0,1,45.313-120.785A544.285,544.285,0,0,1,178.733,233a480.375,480.375,0,0,1,86.208-81H740.835a488.073,488.073,0,0,1,86.873,80.764,551.389,551.389,0,0,1,68.586,102.892A604.388,604.388,0,0,1,942.945,456.47a637.2,637.2,0,0,1,13.96,65.814A655.566,655.566,0,0,1,964.012,591Z" transform="translate(564 502)" fill="red"/>
    <g id="Repeat_Grid_1" data-name="Repeat Grid 1" transform="translate(1085 776)" clip-path="url(#clip-path)">
      <g transform="translate(-531 -50)">
        <circle id="Ellipse_2" data-name="Ellipse 2" cx="6.5" cy="6.5" r="6.5" transform="translate(531 50)"/>
      </g>
      <g transform="translate(-531 -17)">
        <circle id="Ellipse_2-2" data-name="Ellipse 2" cx="6.5" cy="6.5" r="6.5" transform="translate(531 50)"/>
      </g>
      <g transform="translate(-531 16)">
        <circle id="Ellipse_2-3" data-name="Ellipse 2" cx="6.5" cy="6.5" r="6.5" transform="translate(531 50)"/>
      </g>
      <g transform="translate(-531 49)">
        <circle id="Ellipse_2-4" data-name="Ellipse 2" cx="6.5" cy="6.5" r="6.5" transform="translate(531 50)"/>
      </g>
      <g transform="translate(-531 82)">
        <circle id="Ellipse_2-5" data-name="Ellipse 2" cx="6.5" cy="6.5" r="6.5" transform="translate(531 50)"/>
      </g>
      <g transform="translate(-531 115)">
        <circle id="Ellipse_2-6" data-name="Ellipse 2" cx="6.5" cy="6.5" r="6.5" transform="translate(531 50)"/>
      </g>
      <g transform="translate(-531 148)">
        <circle id="Ellipse_2-7" data-name="Ellipse 2" cx="6.5" cy="6.5" r="6.5" transform="translate(531 50)"/>
      </g>
      <g transform="translate(-531 181)">
        <circle id="Ellipse_2-8" data-name="Ellipse 2" cx="6.5" cy="6.5" r="6.5" transform="translate(531 50)"/>
      </g>
      <g transform="translate(-531 214)">
        <circle id="Ellipse_2-9" data-name="Ellipse 2" cx="6.5" cy="6.5" r="6.5" transform="translate(531 50)"/>
      </g>
      <g transform="translate(-531 247)">
        <circle id="Ellipse_2-10" data-name="Ellipse 2" cx="6.5" cy="6.5" r="6.5" transform="translate(531 50)"/>
      </g>
    </g>
    <path id="Path_1" data-name="Path 1" d="M0,0H5V322H0Z" transform="translate(1104 771)"/>
  </g>
</svg>
