<svg xmlns="http://www.w3.org/2000/svg" width="917.699" height="439" viewBox="0 0 917.699 439">
  <g id="Kleidung4" transform="translate(-610.313 -654)">
    <path id="Kravatte" d="M639.292,1064.011H583.708l-20.707-38,41.953-224.035-34.966-34.964L611,726l41.013,41.012L617.89,801.135,660,1026.012l-20.708,38Z" transform="translate(458 28.988)"/>
    <path id="Kleidung4-2" data-name="Kleidung4" d="M964.012,591H46.313a651.247,651.247,0,0,1,6.357-68.472A632.692,632.692,0,0,1,65.9,456.853a598.905,598.905,0,0,1,45.313-120.785A544.285,544.285,0,0,1,178.733,233a480.375,480.375,0,0,1,86.208-81H740.835a488.073,488.073,0,0,1,86.873,80.764,551.389,551.389,0,0,1,68.586,102.892A604.388,604.388,0,0,1,942.945,456.47a637.2,637.2,0,0,1,13.96,65.814A655.566,655.566,0,0,1,964.012,591Z" transform="translate(564 502)" fill="red"/>
  </g>
</svg>
