<?xml version="1.0" encoding="UTF-8" standalone="no"?>
<svg
   xmlns:dc="http://purl.org/dc/elements/1.1/"
   xmlns:cc="http://creativecommons.org/ns#"
   xmlns:rdf="http://www.w3.org/1999/02/22-rdf-syntax-ns#"
   xmlns:svg="http://www.w3.org/2000/svg"
   xmlns="http://www.w3.org/2000/svg"
   xmlns:sodipodi="http://sodipodi.sourceforge.net/DTD/sodipodi-0.dtd"
   xmlns:inkscape="http://www.inkscape.org/namespaces/inkscape"
   width="917.69897"
   height="439"
   viewBox="0 0 917.69897 439"
   version="1.1"
   id="svg20"
   sodipodi:docname="Body3.svg"
   inkscape:version="0.92.4 (5da689c313, 2019-01-14)">
  <metadata
     id="metadata24">
    <rdf:RDF>
      <cc:Work
         rdf:about="">
        <dc:format>image/svg+xml</dc:format>
        <dc:type
           rdf:resource="http://purl.org/dc/dcmitype/StillImage" />
      </cc:Work>
    </rdf:RDF>
  </metadata>
  <sodipodi:namedview
     pagecolor="#ffffff"
     bordercolor="#666666"
     borderopacity="1"
     objecttolerance="10"
     gridtolerance="10"
     guidetolerance="10"
     inkscape:pageopacity="0"
     inkscape:pageshadow="2"
     inkscape:window-width="1052"
     inkscape:window-height="563"
     id="namedview22"
     showgrid="false"
     inkscape:zoom="0.20903454"
     inkscape:cx="459.687"
     inkscape:cy="522.5"
     inkscape:window-x="0"
     inkscape:window-y="0"
     inkscape:window-maximized="0"
     inkscape:current-layer="svg20" />
  <defs
     id="defs5">
    <clipPath
       id="clip-path">
      <rect
         width="1072"
         height="1129"
         id="rect2"
         x="0"
         y="0"
         style="fill:none" />
    </clipPath>
  </defs>
  <path
     style="fill:#ff0000"
     inkscape:connector-curvature="0"
     d="M 917.699,439 H 0 A 651.247,651.247 0 0 1 6.357,370.528 632.692,632.692 0 0 1 19.587,304.853 598.905,598.905 0 0 1 64.9,184.068 544.285,544.285 0 0 1 132.42,81 480.375,480.375 0 0 1 218.628,0 h 475.894 a 488.073,488.073 0 0 1 86.873,80.764 551.389,551.389 0 0 1 68.586,102.892 604.388,604.388 0 0 1 46.651,120.814 637.2,637.2 0 0 1 13.96,65.814 655.566,655.566 0 0 1 7.107,68.716 z"
     id="Kleidung3" />
  <g
     style="fill:none"
     transform="translate(22.687,-622.02)"
     data-name="Subtraction 5"
     id="Subtraction_5">
    <path
       style="stroke:none"
       inkscape:connector-curvature="0"
       id="path8"
       d="m 627.5,880.02 a 29.257,29.257 0 0 1 -17.321,-5.978 44.879,44.879 0 0 1 -7.559,-7.014 62.145,62.145 0 0 1 -6.586,-9.29 91.273,91.273 0 0 1 -9.537,-24.182 123.458,123.458 0 0 1 -3.5,-29.613 c 0,-1.979 0.045,-3.979 0.134,-5.943 h 88.732 c 0.089,1.972 0.134,3.971 0.134,5.943 a 123.458,123.458 0 0 1 -3.5,29.613 91.271,91.271 0 0 1 -9.537,24.182 62.139,62.139 0 0 1 -6.586,9.29 44.881,44.881 0 0 1 -7.559,7.014 29.258,29.258 0 0 1 -17.315,5.978 z" />
    <path
       style="fill:#000000;stroke:none"
       inkscape:connector-curvature="0"
       id="path10"
       d="m 627.49982,875.02014 c 4.93383,0 9.776,-1.69238 14.3919,-5.03009 2.32489,-1.68109 4.5821,-3.77899 6.70887,-6.23529 2.15582,-2.48999 4.19134,-5.36371 6.05004,-8.54138 3.84498,-6.57312 6.87269,-14.26367 8.99897,-22.85809 2.22339,-8.98688 3.35071,-18.54602 3.35071,-28.41205 0,-0.31385 -10e-4,-0.6283 -0.004,-0.94293 h -78.99299 c -0.002,0.31469 -0.004,0.62902 -0.004,0.94293 0,9.86603 1.12732,19.42517 3.35071,28.41198 2.12628,8.59443 5.15393,16.28498 8.9989,22.85822 1.85889,3.17792 3.89435,6.05164 6.04987,8.54132 2.12695,2.45648 4.38409,4.55432 6.70874,6.23529 4.61578,3.33771 9.45776,5.03009 14.39136,5.03009 m 0,5 c -6.00739,0 -11.83509,-2.01135 -17.32117,-5.97839 -2.63672,-1.90662 -5.17993,-4.26654 -7.5589,-7.01416 -2.35638,-2.72162 -4.57214,-5.84711 -6.58581,-9.28967 -4.08674,-6.98658 -7.29535,-15.12256 -9.53669,-24.18183 -2.32043,-9.37927 -3.49701,-19.34241 -3.49701,-29.61285 0,-1.97925 0.045,-3.9787 0.13379,-5.94293 h 88.73243 c 0.0892,1.97192 0.13385,3.971 0.13385,5.94293 0,10.27044 -1.17658,20.23358 -3.49701,29.61285 -2.24134,9.05921 -5.44996,17.19519 -9.53681,24.18183 -2.01361,3.44256 -4.22943,6.56799 -6.58587,9.28967 -2.37897,2.74756 -4.92218,5.10742 -7.55909,7.01416 -5.48626,3.96704 -11.31414,5.97839 -17.32171,5.97839 z" />
  </g>
</svg>
