<?xml version="1.0" encoding="UTF-8" standalone="no"?>
<svg
   xmlns:dc="http://purl.org/dc/elements/1.1/"
   xmlns:cc="http://creativecommons.org/ns#"
   xmlns:rdf="http://www.w3.org/1999/02/22-rdf-syntax-ns#"
   xmlns:svg="http://www.w3.org/2000/svg"
   xmlns="http://www.w3.org/2000/svg"
   xmlns:sodipodi="http://sodipodi.sourceforge.net/DTD/sodipodi-0.dtd"
   xmlns:inkscape="http://www.inkscape.org/namespaces/inkscape"
   width="556.53497"
   height="300.18961"
   viewBox="0 0 556.53497 300.18961"
   version="1.1"
   id="svg15"
   sodipodi:docname="Beard4.svg"
   inkscape:version="0.92.4 (5da689c313, 2019-01-14)">
  <metadata
     id="metadata19">
    <rdf:RDF>
      <cc:Work
         rdf:about="">
        <dc:format>image/svg+xml</dc:format>
        <dc:type
           rdf:resource="http://purl.org/dc/dcmitype/StillImage" />
      </cc:Work>
    </rdf:RDF>
  </metadata>
  <sodipodi:namedview
     pagecolor="#ffffff"
     bordercolor="#666666"
     borderopacity="1"
     objecttolerance="10"
     gridtolerance="10"
     guidetolerance="10"
     inkscape:pageopacity="0"
     inkscape:pageshadow="2"
     inkscape:window-width="3840"
     inkscape:window-height="2004"
     id="namedview17"
     showgrid="false"
     inkscape:zoom="0.83613817"
     inkscape:cx="155.85984"
     inkscape:cy="76.749454"
     inkscape:window-x="-16"
     inkscape:window-y="-16"
     inkscape:window-maximized="1"
     inkscape:current-layer="svg15" />
  <defs
     id="defs5">
    <clipPath
       id="clip-path">
      <rect
         width="1072"
         height="1129"
         id="rect2"
         x="0"
         y="0"
         style="fill:none" />
    </clipPath>
  </defs>
  <g
     style="opacity:0"
     clip-path="url(#clip-path)"
     id="Holder"
     transform="scale(0.51915575,0.26588983)">
    <g
       style="opacity:0.203;fill:#1ae209"
       data-name="Holder"
       id="Holder-2">
      <path
         style="stroke:none"
         inkscape:connector-curvature="0"
         id="path7"
         d="M 1071.5,1128.5 H 0.5 V 0.5 h 1071 z" />
      <path
         style="fill:#707070;stroke:none"
         inkscape:connector-curvature="0"
         id="path9"
         d="M 1,1 V 1128 H 1071 V 1 H 1 M 0,0 H 1072 V 1129 H 0 Z" />
    </g>
  </g>
  <path
     inkscape:connector-curvature="0"
     d="m 21.18962,131.68724 3.068,-31.900004 44.924,-7.94 26.957,3.3 18.2,22.700004 24.048,12.06 7.752,23.176 45.194,2 35.368,18.843 13.99,3.26 14.551,11.657 18.839,-7.5 21.434,2.044 13.089,-6.2 15.445,6.2 17.95,-28.3 h 36.6 l 14.649,-29.4 36.073,-13.122 18.224,-25.218004 15.666,-5.587 26.526,-7.5 24.738,-6.7 h 12.557 l 2.655,6.7 1.536,10.17 -1.536,9.376 1.536,12.057004 -4.19,15.3 -12.549,17.816 -4.321,16.1 -24.473,15.063 -12.89,22.12 -20.757,13.833 -22.71,9.039 -17.482,17.562 -28.954,7.325 -26.1,16.066 -36.369,2.016 -20.127,14.008 -31.184,-7.643 -35.6,7.643 -13.4,-14.008 h -37.667 l -27.347,-16.91 -32.98,-3.15 -14.133,-22.479 -24.813,-11.627 -16.243,-24.541 -17.327,-13.817 -6.7,-10.49 -10.6,-15.839 z"
     id="Bart5" />
</svg>
