<svg xmlns="http://www.w3.org/2000/svg" width="748" height="801" viewBox="0 0 748 801">
  <g id="Beard4" transform="translate(-699 -31)">
    <rect id="Rectangle_23" data-name="Rectangle 23" width="748" height="801" transform="translate(699 31)" fill="none" opacity="0"/>
    <path id="Bart4" d="M986.27,564.524l2.564-12.367,11.081,3.549h15.519l12.443,2.459,9.537-2.459,7.289,4.153,14.352-1.694,6.806,4.56,9.669-2.867,7.755,2.867,15.69-7.02H1109.3l8.264-5.412,12.375,9.565v9.686l-12.375,8.5-5.981-4.78-7.066,7.483-11.465-4.578-9.766,1.876-11.888,2.7-11-4.578-8.162,6.2-14.824-1.624-6.727,3.792-2.81-8.37-9.342,4.578-14-7.483H994.275Z"/>
  </g>
</svg>
