<svg xmlns="http://www.w3.org/2000/svg" xmlns:xlink="http://www.w3.org/1999/xlink" width="1072" height="1129" viewBox="0 0 1072 1129">
  <defs>
    <clipPath id="clip-path">
      <rect width="1072" height="1129" fill="none"/>
    </clipPath>
  </defs>
  <g id="Beard3" transform="translate(-534 -5)">
    <path id="Bart4" d="M986.27,564.524l2.564-12.367,11.081,3.549h15.519l12.443,2.459,9.537-2.459,7.289,4.153,14.352-1.694,6.806,4.56,9.669-2.867,7.755,2.867,15.69-7.02H1109.3l8.264-5.412,12.375,9.565v9.686l-12.375,8.5-5.981-4.78-7.066,7.483-11.465-4.578-9.766,1.876-11.888,2.7-11-4.578-8.162,6.2-14.824-1.624-6.727,3.792-2.81-8.37-9.342,4.578-14-7.483H994.275Z"/>
    <g id="Holder" transform="translate(534 5)" opacity="0" clip-path="url(#clip-path)">
      <g id="Holder-2" data-name="Holder" fill="#1ae209" stroke="#707070" stroke-width="1" opacity="0.203">
        <rect width="1072" height="1129" stroke="none"/>
        <rect x="0.5" y="0.5" width="1071" height="1128" fill="none"/>
      </g>
    </g>
  </g>
</svg>
