<?xml version="1.0" encoding="UTF-8" standalone="no"?>
<svg
   xmlns:dc="http://purl.org/dc/elements/1.1/"
   xmlns:cc="http://creativecommons.org/ns#"
   xmlns:rdf="http://www.w3.org/1999/02/22-rdf-syntax-ns#"
   xmlns:svg="http://www.w3.org/2000/svg"
   xmlns="http://www.w3.org/2000/svg"
   xmlns:sodipodi="http://sodipodi.sourceforge.net/DTD/sodipodi-0.dtd"
   xmlns:inkscape="http://www.inkscape.org/namespaces/inkscape"
   width="106.84851"
   height="300.18961"
   viewBox="0 0 106.84851 300.1896"
   version="1.1"
   id="svg15"
   sodipodi:docname="Beard1.svg"
   inkscape:version="0.92.4 (5da689c313, 2019-01-14)">
  <metadata
     id="metadata19">
    <rdf:RDF>
      <cc:Work
         rdf:about="">
        <dc:format>image/svg+xml</dc:format>
        <dc:type
           rdf:resource="http://purl.org/dc/dcmitype/StillImage" />
      </cc:Work>
    </rdf:RDF>
  </metadata>
  <sodipodi:namedview
     pagecolor="#ffffff"
     bordercolor="#666666"
     borderopacity="1"
     objecttolerance="10"
     gridtolerance="10"
     guidetolerance="10"
     inkscape:pageopacity="0"
     inkscape:pageshadow="2"
     inkscape:window-width="3840"
     inkscape:window-height="2004"
     id="namedview17"
     showgrid="false"
     inkscape:zoom="0.83613817"
     inkscape:cx="304.7894"
     inkscape:cy="119.78643"
     inkscape:window-x="-16"
     inkscape:window-y="-16"
     inkscape:window-maximized="1"
     inkscape:current-layer="svg15" />
  <defs
     id="defs5">
    <clipPath
       id="clip-path">
      <rect
         width="1072"
         height="1129"
         id="rect2"
         x="0"
         y="0"
         style="fill:none" />
    </clipPath>
  </defs>
  <path
     inkscape:connector-curvature="0"
     d="m 13.42545,227.97734 1.434,-13.7 3.67,2.109 h 6.271 l 3.12,1.787 v -3.9 h 3.578 l 1.252,2.109 4.656,-2.109 5.791,2.109 h 11.549 l 9.1,-2.109 1.927,-4.426 4.667,4.426 5.224,-2.81 3.75,2.81 11.649,-2.81 1.726,15.1 -11.283,3.348 -4.593,6.31 -4.169,-6.31 -4.252,4.116 -8.645,-4.116 -5.1,4.116 -8.367,-4.116 -4.094,4.116 -3.2,-4.116 -7.591,4.116 -1.281,-4.116 -7.968,4.116 -2.653,-4.116 -6.171,5.239 z"
     id="Bart1" />
  <g
     style="opacity:0"
     clip-path="url(#clip-path)"
     id="Holder"
     transform="scale(0.09967212,0.26588983)">
    <g
       style="opacity:0.203;fill:#1ae209;stroke:#707070;stroke-width:1"
       data-name="Holder"
       id="Holder-2">
      <rect
         style="stroke:none"
         y="0"
         x="0"
         id="rect8"
         height="1129"
         width="1072" />
      <rect
         style="fill:none"
         id="rect10"
         height="1128"
         width="1071"
         y="0.5"
         x="0.5" />
    </g>
  </g>
</svg>
