<?xml version="1.0" standalone="no"?><!-- Generator: Gravit.io --><svg xmlns="http://www.w3.org/2000/svg" xmlns:xlink="http://www.w3.org/1999/xlink" style="isolation:isolate" viewBox="112.481 346.499 117.039 70.336" width="117.039px" height="70.336px"><path d=" M 114.381 348.001 C 114.381 356.072 114.472 364.365 116.381 372.001 C 116.381 382.401 120.454 390.815 124.381 398.668 C 128.667 407.241 137.905 414.001 146.381 414.001 C 155.976 414.001 164.682 415.334 173.048 415.334 C 182.825 415.334 191.27 415.334 199.714 415.334 C 207.928 415.334 221.048 406.943 221.048 398.668 C 221.048 388.756 226.381 380.389 226.381 372.001 C 226.381 363.69 231.167 345.763 224.381 359.334 C 222.441 363.214 221.551 366.328 220.381 368.668 C 217.525 374.379 209.951 378.861 207.714 383.334 C 205.01 388.743 186.199 393.759 181.714 396.001 C 175.403 399.157 160.332 400.643 155.048 398.001 C 146.187 393.571 133.966 388.504 129.714 380.001 C 125.088 370.749 119.276 363.124 115.048 354.668 C 113.843 352.259 113.714 347.885 114.381 348.001 Z " id="Path" fill="rgb(0,0,0)" vector-effect="non-scaling-stroke" stroke-width="1" stroke="rgb(0,0,0)" stroke-linejoin="miter" stroke-linecap="square" stroke-miterlimit="3"/></svg>