<svg xmlns="http://www.w3.org/2000/svg" xmlns:xlink="http://www.w3.org/1999/xlink" width="1072" height="1129" viewBox="0 0 1072 1129">
  <defs>
    <clipPath id="clip-path">
      <rect width="1072" height="1129" fill="none"/>
    </clipPath>
  </defs>
  <g id="Beard5" transform="translate(-534 -5)">
    <g id="Holder" transform="translate(534 5)" opacity="0" clip-path="url(#clip-path)">
      <g id="Holder-2" data-name="Holder" fill="#1ae209" stroke="#707070" stroke-width="1" opacity="0.203">
        <rect width="1072" height="1129" stroke="none"/>
        <rect x="0.5" y="0.5" width="1071" height="1128" fill="none"/>
      </g>
    </g>
    <g id="Bart6">
      <path id="Bart4" d="M986.27,564.524l2.564-12.367,11.081,3.549h15.519l12.443,2.459,9.537-2.459,7.289,4.153,14.352-1.694,6.806,4.56,9.669-2.867,7.755,2.867,15.69-7.02H1109.3l8.264-5.412,12.375,9.565v9.686l-12.375,8.5-5.981-4.78-7.066,7.483-11.465-4.578-9.766,1.876-11.888,2.7-11-4.578-8.162,6.2-14.824-1.624-6.727,3.792-2.81-8.37-9.342,4.578-14-7.483H994.275Z"/>
      <path id="Path_9" data-name="Path 9" d="M819.5,665.308l3.068-31.9,44.924-7.94,26.957,3.3,18.2,22.7,24.048,12.06,7.752,23.176,45.194,2,35.368,18.843,13.99,3.26,14.551,11.657,18.839-7.5,21.434,2.044,13.089-6.2,15.445,6.2,17.95-28.3h36.6l14.649-29.4,36.073-13.122,18.224-25.218,15.666-5.587,26.526-7.5,24.738-6.7h12.557l2.655,6.7,1.536,10.17-1.536,9.376,1.536,12.057-4.19,15.3L1312.794,672.6l-4.321,16.1-23.094,15.537-14.273,21.636-20.757,13.833-22.71,9.039-17.482,17.562-28.954,7.325-26.1,16.066-35.528,5.889-32.466,5.978-21.042-4.873-34.242,9.029-14.236-14.213-33.68-5.03-30.236-12.2-31.324-4.223L906.3,749.185l-24.813-11.627-16.243-24.541L847.917,699.2l-4.968-10.735s-4.758-3.036-11.861-7.83S819.5,665.308,819.5,665.308Z"/>
    </g>
  </g>
</svg>
