<?xml version="1.0" standalone="no"?><!-- Generator: Gravit.io --><svg xmlns="http://www.w3.org/2000/svg" xmlns:xlink="http://www.w3.org/1999/xlink" style="isolation:isolate" viewBox="112.833 348.361 116.333 66.611" width="116.333px" height="66.611px"><path d=" M 114.333 349.861 C 117.428 356.05 116.333 368.461 116.333 372.528 C 116.333 373.861 123.667 379.861 123.667 379.861 C 123.667 381.743 122.772 383.861 125 383.861 C 125 383.861 127 382.528 127 382.528 C 127 385.69 130.205 392.727 131 392.528 C 132.748 392.091 133.196 400.999 135 399.195 C 135 399.195 136.333 398.528 136.333 398.528 C 136.333 399.861 143.667 400.528 143.667 400.528 C 144.018 400.879 143.92 401.586 144.333 401.861 C 144.703 402.108 145.352 401.547 145.667 401.861 C 145.981 402.176 145.352 402.88 145.667 403.195 C 147.244 404.771 149.667 394.87 149.667 403.195 C 149.667 404.528 159 406.528 159 406.528 C 163.158 402.37 165.498 408.866 166.333 407.195 C 166.556 406.75 166.778 405.417 167 405.861 C 169.927 411.714 173.904 407.432 176.333 409.861 C 179.598 413.126 181 404.141 181 411.861 C 181 412.306 180.686 412.88 181 413.195 C 181.314 413.509 182.193 413.616 182.333 413.195 C 185.059 405.017 199.946 406.635 201.667 403.195 C 203.24 400.048 204.947 404.072 206.333 398.528 C 206.454 398.046 206.778 397.639 207 397.195 C 207.222 396.75 207.253 396.137 207.667 395.861 C 208.036 395.615 208.569 395.969 209 395.861 C 210.903 395.386 210.996 391.195 211.667 391.195 C 211.667 391.195 214.333 393.861 214.333 393.861 C 214.896 393.58 215.667 393.156 215.667 392.528 C 215.667 387.416 219 389.563 219 382.528 C 219 382.528 223.667 371.861 223.667 371.861 C 229.228 382.983 223.579 369.547 225 363.861 C 225 363.861 227.667 359.861 227.667 359.861 C 227.667 346.283 222.837 352.855 220.333 357.861 C 219.667 359.195 218.333 367.195 218.333 367.195 C 217.164 367.195 217.854 363.195 217.667 363.195 C 217.667 363.195 217 368.528 217 368.528 C 215.714 368.528 216.59 363.195 216.333 363.195 C 215.31 363.195 215.808 365.579 215.667 365.861 C 215 367.195 209.667 375.195 209.667 375.195 C 210.137 373.312 210.137 373.312 209.667 375.195 C 209.236 376.917 209 383.557 209 377.861 C 209 376.528 203.667 384.528 203.667 384.528 C 202.704 386.453 201.325 387.706 200.333 389.195 C 200.333 389.195 199 388.528 199 388.528 C 194.658 390.699 198.999 385.196 193.667 390.528 C 193.315 390.879 193.471 391.704 193 391.861 C 192.529 392.018 192.111 391.417 191.667 391.195 C 191.222 390.972 190.805 390.371 190.333 390.528 C 189.862 390.685 190.018 391.51 189.667 391.861 C 189.315 392.213 188.805 392.685 188.333 392.528 C 186.681 391.977 186.715 387.765 184.333 392.528 C 183.667 393.861 177 388.528 177 388.528 C 176.503 388.528 175.942 388.781 175.667 389.195 C 175.667 389.195 168.333 392.528 168.333 392.528 C 168.333 387.261 164.441 395.626 163.667 392.528 C 163.427 391.57 164.133 390.617 163 389.861 C 162.63 389.615 162.036 389.615 161.667 389.861 C 161.253 390.137 161.497 391.195 161 391.195 C 160.556 391.195 161 390.306 161 389.861 C 161 389.417 161.444 388.528 161 388.528 C 160.503 388.528 160.556 389.417 160.333 389.861 C 160.111 390.306 160.111 391.417 159.667 391.195 C 159.038 390.88 159.261 389.847 159 389.195 C 158.304 387.454 157.9 384.728 156.333 387.861 C 155.541 389.447 149.595 393.159 148.333 392.528 C 147.488 392.105 148.927 386.752 148.333 385.861 C 148.058 385.448 147.497 385.195 147 385.195 C 144.858 385.195 143 393.363 143 387.195 C 143 377.72 132.333 372.045 132.333 367.861 C 132.333 366.528 131 369.195 131 369.195 C 131 369.195 129 365.861 129 365.861 C 128.753 365.491 129 364.972 129 364.528 C 129 364.083 129 363.639 129 363.195 C 129 362.75 129.108 362.292 129 361.861 C 128.879 361.379 128.747 360.804 128.333 360.528 C 127.964 360.281 127.398 360.329 127 360.528 C 126.438 360.809 126.111 361.417 125.667 361.861 C 125.222 362.306 124.962 363.195 124.333 363.195 C 123.836 363.195 123.889 362.306 123.667 361.861 C 122.898 360.324 122.621 355.574 119.667 358.528 C 119.315 358.879 119.222 360.306 119 359.861 C 116.743 355.348 114.963 353.667 114.333 349.861 Z " id="Path" fill="rgb(0,0,0)" vector-effect="non-scaling-stroke" stroke-width="1" stroke="rgb(0,0,0)" stroke-linejoin="miter" stroke-linecap="square" stroke-miterlimit="3"/></svg>