<svg xmlns="http://www.w3.org/2000/svg" width="748" height="801" viewBox="0 0 748 801">
  <g id="Beard3" transform="translate(-699 -31)">
    <rect id="Rectangle_22" data-name="Rectangle 22" width="748" height="801" transform="translate(699 31)" fill="none" opacity="0"/>
    <g id="Bart3">
      <rect id="Rectangle_21" data-name="Rectangle 21" width="748" height="801" transform="translate(699 31)" fill="none" opacity="0"/>
      <path id="Path_6" data-name="Path 6" d="M1038.971,766.382l1.434-13.7,3.67,2.109h6.271l3.12,1.787v-3.9h3.578l1.252,2.109,4.656-2.109,5.791,2.109h11.549l9.1-2.109,1.927-4.426,4.667,4.426,5.224-2.81,3.75,2.81,11.649-2.81,1.726,15.1-11.283,3.348-4.593,6.31-4.169-6.31-4.252,4.116-8.645-4.116-5.1,4.116-8.367-4.116-4.094,4.116-3.2-4.116-7.591,4.116-1.281-4.116-7.968,4.116-2.653-4.116-6.171,5.239Z"/>
      <path id="Path_7" data-name="Path 7" d="M1056.3,687.368l-.2-6.979,3.6-2.537,2.525,2.537,5.3-2.537,3.663,2.537,11.414-2.537,4.051,2.537,1.907,2.295v5.707l-4.134,3.054-5.211-3.054-4.31,1.594-1.767,4.131-4.156-2.671-8.333,1.405Z"/>
    </g>
  </g>
</svg>
