<?xml version="1.0" encoding="UTF-8" standalone="no"?>
<svg
   xmlns:dc="http://purl.org/dc/elements/1.1/"
   xmlns:cc="http://creativecommons.org/ns#"
   xmlns:rdf="http://www.w3.org/1999/02/22-rdf-syntax-ns#"
   xmlns:svg="http://www.w3.org/2000/svg"
   xmlns="http://www.w3.org/2000/svg"
   xmlns:sodipodi="http://sodipodi.sourceforge.net/DTD/sodipodi-0.dtd"
   xmlns:inkscape="http://www.inkscape.org/namespaces/inkscape"
   width="544.29462"
   height="299.0882"
   viewBox="0 0 544.29462 299.0882"
   version="1.1"
   id="svg17"
   sodipodi:docname="Beard5.svg"
   inkscape:version="0.92.4 (5da689c313, 2019-01-14)">
  <metadata
     id="metadata21">
    <rdf:RDF>
      <cc:Work
         rdf:about="">
        <dc:format>image/svg+xml</dc:format>
        <dc:type
           rdf:resource="http://purl.org/dc/dcmitype/StillImage" />
      </cc:Work>
    </rdf:RDF>
  </metadata>
  <sodipodi:namedview
     pagecolor="#ffffff"
     bordercolor="#666666"
     borderopacity="1"
     objecttolerance="10"
     gridtolerance="10"
     guidetolerance="10"
     inkscape:pageopacity="0"
     inkscape:pageshadow="2"
     inkscape:window-width="3840"
     inkscape:window-height="2004"
     id="namedview19"
     showgrid="false"
     inkscape:zoom="0.59123897"
     inkscape:cx="268.331"
     inkscape:cy="90.650723"
     inkscape:window-x="-16"
     inkscape:window-y="-16"
     inkscape:window-maximized="1"
     inkscape:current-layer="svg17" />
  <defs
     id="defs5">
    <clipPath
       id="clip-path">
      <rect
         width="1072"
         height="1129"
         id="rect2"
         x="0"
         y="0"
         style="fill:none" />
    </clipPath>
  </defs>
  <g
     style="opacity:0"
     clip-path="url(#clip-path)"
     id="Holder"
     transform="matrix(0.47759613,0,0.02861961,0.26491427,0,0)">
    <g
       style="opacity:0.203;fill:#1ae209;stroke:#707070;stroke-width:1"
       data-name="Holder"
       id="Holder-2">
      <rect
         style="stroke:none"
         y="0"
         x="0"
         id="rect7"
         height="1129"
         width="1072" />
      <rect
         style="fill:none"
         id="rect9"
         height="1128"
         width="1071"
         y="0.5"
         x="0.5" />
    </g>
  </g>
  <g
     id="Bart6"
     transform="translate(-802.92679,-537.77949)">
    <path
       inkscape:connector-curvature="0"
       d="m 986.27,564.524 2.564,-12.367 11.081,3.549 h 15.519 l 12.443,2.459 9.537,-2.459 7.289,4.153 14.352,-1.694 6.806,4.56 9.669,-2.867 7.755,2.867 15.69,-7.02 h 10.325 l 8.264,-5.412 12.375,9.565 v 9.686 l -12.375,8.5 -5.981,-4.78 -7.066,7.483 -11.465,-4.578 -9.766,1.876 -11.888,2.7 -11,-4.578 -8.162,6.2 -14.824,-1.624 -6.727,3.792 -2.81,-8.37 -9.342,4.578 -14,-7.483 h -10.258 z"
       id="Bart4" />
    <path
       inkscape:connector-curvature="0"
       d="m 819.5,665.308 3.068,-31.9 44.924,-7.94 26.957,3.3 18.2,22.7 24.048,12.06 7.752,23.176 45.194,2 35.368,18.843 13.99,3.26 14.551,11.657 18.839,-7.5 21.434,2.044 13.089,-6.2 15.445,6.2 17.95,-28.3 h 36.6 l 14.649,-29.4 36.073,-13.122 18.224,-25.218 15.666,-5.587 26.526,-7.5 24.738,-6.7 h 12.557 l 2.655,6.7 1.536,10.17 -1.536,9.376 1.536,12.057 -4.19,15.3 -12.549,17.816 -4.321,16.1 -23.094,15.537 -14.273,21.636 -20.757,13.833 -22.71,9.039 -17.482,17.562 -28.954,7.325 -26.1,16.066 -35.528,5.889 -32.466,5.978 -21.042,-4.873 -34.242,9.029 -14.236,-14.213 -33.68,-5.03 -30.236,-12.2 -31.324,-4.223 -16.049,-20.87 -24.813,-11.627 -16.243,-24.541 -17.327,-13.817 -4.968,-10.735 c 0,0 -4.758,-3.036 -11.861,-7.83 -7.103,-4.794 -11.588,-15.327 -11.588,-15.327 z"
       data-name="Path 9"
       id="Path_9" />
  </g>
</svg>
