<svg xmlns="http://www.w3.org/2000/svg" xmlns:xlink="http://www.w3.org/1999/xlink" width="1072" height="1129" viewBox="0 0 1072 1129">
  <defs>
    <clipPath id="clip-path">
      <rect width="1072" height="1129" fill="none"/>
    </clipPath>
  </defs>
  <g id="Beard4" transform="translate(-534 -5)">
    <g id="Holder" transform="translate(534 5)" opacity="0" clip-path="url(#clip-path)">
      <g id="Holder-2" data-name="Holder" fill="#1ae209" opacity="0.203">
        <path d="M 1071.5 1128.5 L 0.5 1128.5 L 0.5 0.5 L 1071.5 0.5 L 1071.5 1128.5 Z" stroke="none"/>
        <path d="M 1 1 L 1 1128 L 1071 1128 L 1071 1 L 1 1 M 0 0 L 1072 0 L 1072 1129 L 0 1129 L 0 0 Z" stroke="none" fill="#707070"/>
      </g>
    </g>
    <path id="Bart5" d="M819.5,665.308l3.068-31.9,44.924-7.94,26.957,3.3,18.2,22.7,24.048,12.06,7.752,23.176,45.194,2,35.368,18.843,13.99,3.26,14.551,11.657,18.839-7.5,21.434,2.044,13.089-6.2,15.445,6.2,17.95-28.3h36.6l14.649-29.4,36.073-13.122,18.224-25.218,15.666-5.587,26.526-7.5,24.738-6.7h12.557l2.655,6.7,1.536,10.17-1.536,9.376,1.536,12.057-4.19,15.3L1312.794,672.6l-4.321,16.1L1284,703.763l-12.89,22.12-20.757,13.833-22.71,9.039-17.482,17.562-28.954,7.325-26.1,16.066-36.369,2.016-20.127,14.008-31.184-7.643-35.6,7.643-13.4-14.008H980.76l-27.347-16.91-32.98-3.15L906.3,749.185l-24.813-11.627-16.243-24.541L847.917,699.2l-6.7-10.49-10.6-15.839Z"/>
  </g>
</svg>
