<?xml version="1.0" standalone="no"?><!-- Generator: Gravit.io --><svg xmlns="http://www.w3.org/2000/svg" xmlns:xlink="http://www.w3.org/1999/xlink" style="isolation:isolate" viewBox="111.909 341.114 118.182 81.106" width="118.182px" height="81.106px"><path d=" M 114.742 354.614 C 114.742 363.322 120.742 370.778 120.742 378.614 C 122.429 381.987 122.742 386.914 122.742 389.28 C 122.742 396.449 130.198 398.191 132.076 401.947 C 136.395 410.586 144.626 415.28 153.409 415.28 C 163.012 415.28 172.284 416.384 179.409 419.947 C 186.362 423.424 200.965 414.169 205.409 411.947 C 210.037 409.633 220.353 394.725 222.076 391.28 C 224.594 386.244 226.076 368.751 226.076 364.614 C 226.076 359.51 231.26 336.911 226.742 345.947 C 222.033 355.365 216.859 364.38 212.742 372.614 C 210.984 376.13 204.747 375.777 202.742 377.28 C 197.636 381.11 191.751 382.272 187.409 386.614 C 181.225 392.798 166.079 395.282 160.742 392.614 C 151.487 387.986 144.095 382.29 136.742 378.614 C 128.332 374.408 126.351 360.222 121.409 355.28 C 118.682 352.553 115.246 342.614 113.409 342.614 C 113.409 342.614 113.409 353.28 114.742 354.614 Z " id="Path" fill="rgb(0,0,0)" vector-effect="non-scaling-stroke" stroke-width="1" stroke="rgb(0,0,0)" stroke-linejoin="miter" stroke-linecap="square" stroke-miterlimit="3"/></svg>